<svg width="1024" height="1024" viewBox="0 0 1024 1024" fill="none" xmlns="http://www.w3.org/2000/svg">
  <defs>
    <linearGradient id="bg" x1="176" y1="128" x2="864" y2="912" gradientUnits="userSpaceOnUse">
      <stop stop-color="#0B1220"/>
      <stop offset="0.55" stop-color="#153059"/>
      <stop offset="1" stop-color="#0E8B74"/>
    </linearGradient>
    <linearGradient id="glow" x1="312" y1="248" x2="728" y2="760" gradientUnits="userSpaceOnUse">
      <stop stop-color="#8BB8FF"/>
      <stop offset="1" stop-color="#72F2D1"/>
    </linearGradient>
    <filter id="shadow" x="122" y="122" width="780" height="780" filterUnits="userSpaceOnUse" color-interpolation-filters="sRGB">
      <feDropShadow dx="0" dy="24" stdDeviation="42" flood-color="#03101B" flood-opacity="0.38"/>
    </filter>
  </defs>

  <rect x="104" y="104" width="816" height="816" rx="212" fill="url(#bg)"/>
  <g filter="url(#shadow)">
    <rect x="236" y="228" width="552" height="568" rx="138" fill="#0B1526" fill-opacity="0.68" stroke="rgba(255,255,255,0.18)"/>
  </g>

  <rect x="286" y="304" width="178" height="392" rx="48" fill="#EAF3FF" fill-opacity="0.16" stroke="#D6EEFF" stroke-width="18"/>
  <rect x="330" y="360" width="90" height="246" rx="22" fill="#D7EEFF" fill-opacity="0.9"/>
  <circle cx="375" cy="645" r="14" fill="#D7EEFF"/>

  <rect x="534" y="334" width="214" height="276" rx="36" fill="#EAF3FF" fill-opacity="0.14" stroke="#D6EEFF" stroke-width="18"/>
  <rect x="572" y="372" width="138" height="162" rx="18" fill="#D7EEFF" fill-opacity="0.92"/>
  <rect x="604" y="640" width="74" height="24" rx="12" fill="#D7EEFF"/>

  <path d="M424 506C492 438 548 414 588 414C641 414 688 450 728 522" stroke="url(#glow)" stroke-width="54" stroke-linecap="round"/>
  <path d="M640 515L726 521L706 611" stroke="#72F2D1" stroke-width="44" stroke-linecap="round" stroke-linejoin="round"/>

  <circle cx="700" cy="286" r="18" fill="#8BB8FF"/>
  <circle cx="768" cy="340" r="12" fill="#72F2D1"/>
</svg>
